<?xml version="1.0" standalone="no"?>
<!DOCTYPE svg PUBLIC "-//W3C//DTD SVG 20010904//EN"
 "http://www.w3.org/TR/2001/REC-SVG-20010904/DTD/svg10.dtd">
<svg version="1.0" xmlns="http://www.w3.org/2000/svg"
 width="640.000000pt" height="318.000000pt" viewBox="0 0 640.000000 318.000000"
 preserveAspectRatio="xMidYMid meet">

<g transform="translate(0.000000,318.000000) scale(0.100000,-0.100000)"
fill="#000000" stroke="none">
<path d="M0 1590 l0 -1590 210 0 210 0 -7 28 c-13 44 -7 136 11 174 53 111
190 172 307 135 l46 -14 104 101 c57 55 190 185 295 288 l191 188 242 0 242 0
-3 127 -3 128 -273 5 c-292 5 -291 5 -292 57 0 49 24 53 308 53 l263 0 -3 128
-3 127 -791 3 c-770 2 -791 3 -809 22 -24 27 -13 68 23 81 15 6 85 10 157 9
72 -1 421 -2 778 -1 l647 1 0 125 0 125 -254 0 -255 0 -28 24 c-27 24 -27 26
-13 53 l16 28 264 5 265 5 3 128 3 127 -233 1 c-186 0 -458 0 -488 -1 -4 0
-12 -16 -19 -36 -7 -20 -33 -56 -56 -80 -76 -76 -191 -90 -301 -38 -49 23
-101 89 -121 151 -32 103 13 217 112 278 44 27 57 30 129 30 64 0 90 -5 123
-23 49 -26 102 -86 118 -133 l12 -34 359 0 359 0 5 170 c5 161 7 173 33 227
35 71 110 140 183 167 47 18 78 21 218 21 89 0 165 2 167 4 2 2 3 52 1 110
l-3 106 -1225 0 -1224 0 0 -1590z"/>
<path d="M2570 3070 l0 -110 130 0 130 0 0 110 0 110 -130 0 -130 0 0 -110z"/>
<path d="M2942 3073 l3 -108 113 -3 112 -3 0 111 0 110 -115 0 -116 0 3 -107z"/>
<path d="M3280 3070 l0 -110 125 0 125 0 0 110 0 110 -125 0 -125 0 0 -110z"/>
<path d="M3640 3070 l0 -110 140 0 140 0 0 110 0 110 -140 0 -140 0 0 -110z"/>
<path d="M4040 3071 l0 -109 163 -4 c148 -3 166 -6 212 -28 64 -31 126 -94
162 -162 26 -50 27 -61 31 -215 l4 -163 223 0 223 0 271 276 271 276 -17 31
c-18 34 -23 132 -10 180 l7 27 -770 0 -770 0 0 -109z"/>
<path d="M5715 3160 c-12 -14 -20 -41 -23 -78 -4 -53 -1 -60 30 -95 64 -74
166 -59 209 30 24 50 20 96 -12 137 -19 24 -26 26 -103 26 -71 0 -86 -3 -101
-20z"/>
<path d="M6060 3154 c16 -41 11 -135 -9 -179 -23 -52 -74 -103 -126 -126 -50
-23 -152 -25 -203 -3 l-37 15 -287 -290 -287 -291 -251 0 -250 0 0 -125 0
-125 258 0 c277 0 282 -1 282 -51 0 -55 -19 -59 -292 -59 l-248 0 0 -140 0
-140 749 0 c457 0 760 -4 775 -10 34 -12 44 -54 21 -80 -18 -20 -36 -20 -782
-20 l-763 0 0 -115 0 -115 260 0 c247 0 261 -1 280 -20 24 -24 25 -38 4 -68
-15 -22 -18 -22 -280 -22 l-264 0 0 -129 0 -128 373 -5 c222 -3 373 -2 376 4
12 33 75 97 116 120 42 23 62 28 125 28 68 0 82 -3 130 -32 75 -45 113 -108
118 -194 6 -87 -16 -141 -78 -197 -59 -53 -117 -72 -198 -64 -108 9 -188 73
-217 172 l-15 50 -364 2 -364 2 -4 -182 c-3 -175 -4 -184 -31 -238 -32 -67
-109 -142 -175 -172 -40 -18 -69 -22 -194 -25 l-148 -4 0 -99 0 -99 1170 0
1170 0 0 1590 0 1590 -175 0 -175 0 10 -26z"/>
<path d="M813 2440 c-94 -57 -80 -202 23 -246 77 -33 174 41 174 132 0 100
-113 166 -197 114z"/>
<path d="M3023 2048 c-9 -10 -13 -21 -10 -24 7 -8 57 23 57 35 0 14 -30 8 -47
-11z"/>
<path d="M2697 1897 c-9 -62 -17 -118 -17 -125 0 -19 24 -9 30 13 9 30 48 32
55 2 8 -28 35 -32 35 -4 0 11 -8 66 -17 123 -16 101 -17 104 -43 104 -26 0
-27 -2 -43 -113z m55 -7 c2 -37 -1 -45 -16 -48 -15 -3 -18 0 -13 19 4 13 7 40
7 59 0 49 18 25 22 -30z"/>
<path d="M2830 2006 c-3 -2 -4 -59 -2 -126 2 -88 6 -120 15 -117 8 2 13 34 16
88 l3 84 22 -85 c18 -70 25 -85 41 -85 19 0 20 8 20 120 0 106 -2 120 -17 123
-16 3 -18 -5 -19 -65 l-1 -68 -17 65 c-13 50 -21 66 -37 68 -11 2 -22 1 -24
-2z"/>
<path d="M2986 1903 c-20 -132 -20 -143 -1 -143 9 0 15 9 15 25 0 20 5 25 24
25 17 0 26 -7 30 -25 6 -25 36 -36 36 -13 0 7 -8 63 -17 125 -16 112 -17 113
-43 113 -27 0 -27 -2 -44 -107z m56 -18 c2 -33 0 -40 -16 -43 -16 -4 -18 0
-12 28 3 18 6 44 6 59 1 39 17 5 22 -44z"/>
<path d="M3120 1886 l0 -124 47 2 c37 1 49 5 51 19 3 14 -4 17 -32 17 l-36 0
0 105 c0 87 -3 105 -15 105 -13 0 -15 -20 -15 -124z"/>
<path d="M3237 2003 c-2 -5 -3 -60 -2 -123 1 -99 4 -115 18 -118 15 -3 17 10
17 122 0 103 -3 126 -14 126 -8 0 -17 -3 -19 -7z"/>
<path d="M3318 1999 c-31 -18 -23 -73 17 -118 37 -41 46 -81 19 -81 -9 0 -18
9 -21 20 -7 27 -33 25 -33 -2 0 -48 45 -70 85 -44 38 25 34 73 -9 115 -40 39
-50 66 -29 82 11 10 15 8 20 -9 7 -28 43 -30 43 -3 0 42 -52 64 -92 40z"/>
<path d="M3432 1888 l3 -123 50 0 c39 0 50 4 53 18 3 14 -4 17 -32 17 -34 0
-36 2 -36 35 0 31 3 35 25 35 18 0 25 5 25 20 0 15 -7 20 -25 20 -21 0 -25 5
-25 29 0 26 4 30 32 33 22 2 34 9 36 21 3 14 -5 17 -53 17 l-56 0 3 -122z"/>
<path d="M3620 1885 l0 -125 50 0 c43 0 50 3 50 20 0 16 -7 20 -36 20 -35 0
-35 1 -32 37 3 33 6 38 28 38 15 0 26 7 28 18 3 13 -3 17 -28 17 -29 0 -31 2
-28 33 3 30 5 32 36 29 27 -3 32 0 32 17 0 18 -6 21 -50 21 l-50 0 0 -125z"/>
<path d="M2224 1681 c-2 -2 -4 -58 -4 -123 l0 -118 44 0 c62 0 76 22 76 117 0
104 -8 120 -65 125 -26 2 -48 1 -51 -1z m71 -121 c0 -73 -2 -85 -17 -88 -16
-3 -18 6 -18 88 0 82 2 91 18 88 15 -3 17 -15 17 -88z"/>
<path d="M2520 1683 c-43 -17 -41 -74 6 -125 22 -24 34 -47 32 -60 -4 -29 -28
-35 -35 -9 -3 12 -13 21 -23 21 -14 0 -17 -5 -13 -22 3 -13 10 -29 16 -35 14
-19 62 -16 80 5 30 33 19 71 -36 129 -18 19 -27 38 -24 47 8 20 37 21 37 1 0
-8 9 -15 20 -15 11 0 20 7 20 15 0 19 -36 55 -52 54 -7 0 -20 -3 -28 -6z"/>
<path d="M2768 1683 c-16 -4 -18 -18 -18 -124 0 -99 3 -119 15 -119 12 0 15
17 16 88 l1 87 13 -45 c8 -25 19 -64 25 -87 8 -32 16 -43 30 -43 19 0 20 7 20
120 0 108 -2 120 -17 120 -16 0 -18 -9 -15 -67 4 -80 -9 -75 -27 9 -13 62 -17
67 -43 61z"/>
<path d="M2893 1652 c3 -20 11 -77 18 -125 12 -86 13 -88 38 -85 25 3 27 8 43
108 21 130 21 141 6 138 -21 -5 -26 -18 -33 -100 -4 -43 -11 -76 -15 -73 -4 3
-11 41 -15 84 -6 68 -10 80 -27 84 -18 5 -20 2 -15 -31z"/>
<path d="M3052 1674 c-20 -14 -22 -23 -22 -109 0 -72 4 -97 16 -109 18 -18 47
-20 75 -6 17 10 19 22 19 110 0 91 -2 100 -22 114 -12 9 -27 16 -33 16 -6 0
-21 -7 -33 -16z m56 -104 c2 -85 -7 -112 -32 -91 -12 10 -16 32 -16 86 0 75 4
88 30 83 12 -3 16 -20 18 -78z"/>
<path d="M3270 1673 c0 -10 7 -66 16 -125 16 -102 18 -108 40 -108 13 0 24 1
25 3 0 1 8 54 18 117 13 81 16 117 8 122 -20 12 -26 -2 -33 -82 -3 -44 -10
-83 -14 -85 -4 -3 -11 30 -15 73 -4 43 -10 83 -13 88 -12 16 -32 14 -32 -3z"/>
<path d="M3410 1564 c0 -118 1 -124 20 -124 20 0 20 5 18 122 -3 106 -5 121
-20 124 -16 2 -18 -9 -18 -122z"/>
<path d="M3480 1563 c0 -103 2 -123 15 -123 12 0 15 16 16 83 l2 82 9 -60 c15
-95 18 -105 32 -105 10 0 18 23 26 73 17 108 18 109 19 15 1 -79 3 -88 20 -88
18 0 19 8 17 123 l-1 122 -25 -3 c-14 -2 -26 -5 -27 -6 -2 -1 -8 -38 -15 -82
-13 -86 -13 -86 -32 46 -6 39 -10 45 -31 45 l-25 0 0 -122z"/>
<path d="M3664 1681 c-2 -2 -4 -58 -4 -123 l0 -118 56 0 c47 0 55 3 52 17 -2
12 -13 17 -33 18 -27 0 -30 3 -33 38 -3 34 -1 37 22 37 19 0 26 5 26 19 0 14
-6 17 -25 13 -23 -4 -25 -1 -25 32 0 35 1 36 36 36 27 0 35 4 32 16 -2 12 -15
17 -51 18 -27 0 -51 -1 -53 -3z"/>
<path d="M3879 1616 c-1 -74 -5 -71 -29 22 -9 35 -15 42 -35 42 l-25 0 0 -120
c0 -100 3 -120 15 -120 15 0 20 50 16 145 -2 46 13 12 34 -72 14 -59 21 -73
36 -73 18 0 19 9 19 123 0 103 -2 124 -15 124 -12 0 -15 -15 -16 -71z"/>
<path d="M3948 1682 c-25 -5 -23 -32 2 -32 19 0 20 -7 20 -105 0 -98 1 -105
20 -105 19 0 20 7 20 105 0 98 1 105 20 105 13 0 20 7 20 19 0 15 -7 18 -42
17 -24 0 -51 -2 -60 -4z"/>
<path d="M4084 1676 c-16 -12 -20 -29 -23 -100 -4 -102 11 -136 58 -136 49 0
61 25 61 128 0 83 -2 92 -22 106 -28 20 -49 20 -74 2z m54 -113 c-2 -70 -6
-88 -18 -88 -12 0 -16 16 -18 74 -3 84 1 101 23 101 13 0 15 -13 13 -87z"/>
<path d="M2360 1560 l0 -120 55 0 c42 0 55 3 55 15 0 10 -11 15 -35 15 -34 0
-35 1 -35 40 0 36 3 40 25 40 18 0 25 5 25 19 0 14 -6 17 -25 13 -23 -4 -25
-1 -25 32 0 34 1 36 35 36 24 0 35 5 35 15 0 12 -13 15 -55 15 l-55 0 0 -120z"/>
<path d="M2620 1560 l0 -120 50 0 c38 0 50 4 50 15 0 10 -10 15 -30 15 -28 0
-30 2 -30 40 0 36 3 40 25 40 16 0 25 6 25 15 0 9 -9 15 -25 15 -22 0 -25 4
-25 35 0 32 2 35 30 35 20 0 30 5 30 15 0 11 -12 15 -50 15 l-50 0 0 -120z"/>
<path d="M3170 1560 l0 -120 50 0 c43 0 50 3 50 20 0 16 -5 19 -30 14 l-30 -6
0 106 c0 99 -1 106 -20 106 -19 0 -20 -7 -20 -120z"/>
<path d="M2530 1240 l0 -120 44 0 c62 0 76 22 76 120 0 98 -14 120 -76 120
l-44 0 0 -120z m75 0 c0 -73 -2 -85 -17 -88 -16 -3 -18 6 -18 88 0 82 2 91 18
88 15 -3 17 -15 17 -88z"/>
<path d="M2670 1240 l0 -120 55 0 c42 0 55 3 55 15 0 10 -11 15 -35 15 -34 0
-35 1 -35 40 0 36 3 40 25 40 16 0 25 6 25 15 0 9 -9 15 -25 15 -22 0 -25 4
-25 35 0 33 2 35 35 35 24 0 35 5 35 15 0 12 -13 15 -55 15 l-55 0 0 -120z"/>
<path d="M2860 1341 c-18 -34 -11 -59 31 -107 41 -48 47 -76 16 -82 -12 -2
-17 3 -17 17 0 14 -6 21 -20 21 -22 0 -26 -20 -10 -51 7 -13 21 -19 43 -19 42
0 57 15 57 60 0 28 -8 44 -35 70 -36 35 -47 80 -20 80 9 0 19 -8 23 -17 11
-27 32 -26 32 0 0 32 -18 47 -57 47 -22 0 -36 -6 -43 -19z"/>
<path d="M2990 1240 c0 -108 2 -120 18 -120 15 0 17 11 14 120 -3 96 -6 120
-18 120 -11 0 -14 -22 -14 -120z"/>
<path d="M3062 1348 c-24 -24 -14 -72 23 -108 24 -23 35 -43 35 -62 0 -33 -29
-39 -37 -8 -7 28 -33 25 -33 -3 0 -31 18 -47 55 -47 66 0 76 66 20 129 -37 40
-46 81 -20 81 9 0 19 -8 23 -17 11 -27 32 -26 32 0 0 31 -18 47 -55 47 -17 0
-36 -5 -43 -12z"/>
<path d="M3170 1345 c0 -8 9 -15 20 -15 19 0 20 -7 20 -105 0 -98 1 -105 20
-105 19 0 20 7 20 105 0 98 1 105 20 105 11 0 20 7 20 15 0 12 -13 15 -60 15
-47 0 -60 -3 -60 -15z"/>
<path d="M3310 1240 l0 -120 55 0 c42 0 55 3 55 15 0 10 -11 15 -35 15 -34 0
-35 1 -35 40 0 36 3 40 25 40 16 0 25 6 25 15 0 9 -9 15 -25 15 -22 0 -25 4
-25 35 0 33 2 35 35 35 24 0 35 5 35 15 0 12 -13 15 -55 15 l-55 0 0 -120z"/>
<path d="M3440 1240 c0 -100 3 -120 15 -120 12 0 15 16 16 83 1 81 1 81 11 32
5 -27 11 -65 14 -82 3 -20 11 -33 19 -33 8 0 15 1 16 3 0 1 6 38 14 82 l13 80
1 -82 c1 -76 3 -83 21 -83 19 0 20 7 20 120 l0 120 -29 0 c-29 0 -30 -2 -36
-57 -12 -104 -21 -116 -29 -39 -10 89 -13 96 -42 96 -24 0 -24 0 -24 -120z"/>
<path d="M3655 1348 c-5 -16 -35 -202 -35 -217 0 -22 30 -10 36 15 8 32 47 30
52 -3 2 -15 10 -23 23 -23 15 0 18 5 14 23 -6 29 -35 200 -35 210 0 12 -50 8
-55 -5z m38 -100 c6 -42 4 -48 -11 -48 -15 0 -17 7 -14 38 4 41 11 67 16 61 2
-2 6 -25 9 -51z"/>
<path d="M3770 1341 c-18 -34 -11 -64 24 -101 33 -33 40 -49 37 -77 -2 -21
-29 -15 -36 7 -9 28 -35 25 -35 -3 0 -31 18 -47 55 -47 66 0 76 66 20 129 -37
41 -46 81 -19 81 9 0 18 -9 21 -20 7 -28 33 -25 33 3 0 32 -18 47 -57 47 -22
0 -36 -6 -43 -19z"/>
<path d="M5509 931 c-35 -34 -39 -44 -39 -87 0 -86 55 -144 136 -144 29 0 44
8 74 38 51 51 60 96 30 157 -26 53 -61 75 -121 75 -35 0 -48 -6 -80 -39z"/>
<path d="M1147 517 l-278 -272 21 -49 c19 -41 22 -62 18 -123 l-5 -73 779 0
778 0 0 99 0 99 -178 4 -178 3 -66 33 c-73 36 -124 87 -160 161 -21 41 -23 63
-26 219 l-3 172 -212 0 -212 -1 -278 -272z"/>
<path d="M615 230 c-72 -30 -106 -133 -66 -197 l21 -33 90 0 c85 0 90 1 106
25 26 40 29 105 5 143 -37 58 -103 85 -156 62z"/>
<path d="M2570 100 l0 -100 125 0 125 0 0 100 0 100 -125 0 -125 0 0 -100z"/>
<path d="M2930 100 l0 -100 120 0 120 0 0 100 0 100 -120 0 -120 0 0 -100z"/>
<path d="M3280 100 l0 -100 140 0 140 0 0 100 0 100 -140 0 -140 0 0 -100z"/>
<path d="M3670 100 l0 -100 134 0 133 0 7 77 c3 42 6 87 6 100 l0 23 -140 0
-140 0 0 -100z"/>
</g>
</svg>
