<?xml version="1.0" standalone="no"?>
<!DOCTYPE svg PUBLIC "-//W3C//DTD SVG 20010904//EN"
 "http://www.w3.org/TR/2001/REC-SVG-20010904/DTD/svg10.dtd">
<svg version="1.0" xmlns="http://www.w3.org/2000/svg"
 width="308.000000pt" height="164.000000pt" viewBox="0 0 308.000000 164.000000"
 preserveAspectRatio="xMidYMid meet">

<g transform="translate(0.000000,164.000000) scale(0.100000,-0.100000)"
fill="#000000" stroke="none">
<path d="M0 1180 l0 -450 80 0 80 0 2 188 3 187 193 3 192 2 0 70 0 70 -195 0
-196 0 3 123 3 122 213 0 212 0 0 68 0 67 -295 0 -295 0 0 -450z"/>
<path d="M1418 1458 l-3 -83 -47 -3 -48 -3 0 -59 0 -59 48 -3 47 -3 5 -190 c5
-206 12 -231 66 -274 38 -30 117 -51 191 -51 l63 0 0 63 0 62 -48 0 c-123 1
-132 18 -132 235 l0 160 90 0 90 0 0 60 0 60 -90 0 -90 0 0 85 0 85 -70 0 -69
0 -3 -82z"/>
<path d="M855 1371 c-97 -25 -163 -92 -173 -176 l-5 -45 72 0 c65 0 71 2 71
21 0 60 55 93 147 87 83 -5 113 -32 121 -107 l5 -51 -114 0 c-133 -1 -189 -11
-242 -46 -70 -46 -96 -147 -58 -230 50 -109 177 -132 331 -58 39 19 74 34 76
34 2 0 4 -16 4 -35 l0 -35 70 0 70 0 0 228 c0 127 -5 244 -11 265 -13 48 -60
102 -113 129 -31 17 -63 22 -131 24 -49 2 -103 0 -120 -5z m235 -411 c0 -38
-2 -40 -67 -76 -74 -42 -160 -57 -189 -33 -28 23 -35 57 -20 94 18 43 50 53
179 54 l97 1 0 -40z"/>
<path d="M2015 1367 c-95 -32 -140 -72 -170 -150 -13 -35 -16 -72 -13 -189 3
-141 4 -146 33 -194 57 -91 195 -134 337 -105 96 20 171 89 184 169 l7 42 -70
0 c-70 0 -71 0 -76 -30 -18 -88 -221 -97 -266 -12 -6 11 -13 38 -17 61 l-7 41
217 0 216 0 0 88 c-1 137 -39 211 -132 258 -62 32 -180 42 -243 21z m171 -123
c38 -18 59 -50 69 -107 l7 -37 -152 0 -152 0 7 37 c4 21 13 49 20 64 29 54
131 76 201 43z"/>
<path d="M2697 1366 c-60 -16 -115 -60 -147 -117 -24 -42 -25 -52 -25 -199 0
-175 10 -207 79 -268 96 -84 308 -80 400 6 37 35 66 97 66 145 l0 38 -67 -3
-67 -3 -7 -35 c-14 -69 -101 -106 -183 -78 -62 21 -79 53 -84 158 -8 167 12
217 97 240 77 21 157 -17 170 -80 l7 -35 67 -3 67 -3 0 38 c0 151 -185 249
-373 199z"/>
<path d="M1742 564 c-15 -10 -22 -25 -22 -48 0 -39 14 -53 61 -62 67 -13 82
-30 53 -58 -21 -22 -51 -20 -71 4 -18 20 -53 28 -53 11 0 -5 9 -19 19 -32 16
-20 29 -24 70 -24 60 0 84 19 84 65 0 36 -11 46 -70 61 -52 14 -71 33 -53 54
18 22 67 19 80 -5 13 -25 40 -26 40 -2 0 47 -89 70 -138 36z"/>
<path d="M2740 465 c0 -93 3 -115 14 -115 8 0 16 5 18 11 2 7 12 7 31 -2 20
-9 33 -9 52 -1 23 10 25 17 25 71 0 72 -13 86 -71 77 l-41 -7 4 41 c3 33 0 40
-14 40 -16 0 -18 -11 -18 -115z m108 -33 c4 -47 -12 -61 -47 -42 -15 7 -21 21
-21 45 0 35 11 45 45 42 16 -2 21 -10 23 -45z"/>
<path d="M1973 512 c-31 -5 -53 -39 -53 -84 0 -67 63 -101 118 -62 17 12 22
25 22 62 0 26 -4 52 -8 59 -10 16 -52 30 -79 25z m38 -32 c13 -7 19 -21 19
-43 0 -37 -15 -57 -42 -57 -35 0 -51 66 -22 94 18 19 20 19 45 6z"/>
<path d="M2251 504 c-29 -12 -31 -16 -31 -68 0 -48 3 -58 25 -72 31 -20 90
-11 105 16 15 27 12 82 -5 107 -19 27 -55 33 -94 17z m61 -31 c20 -18 23 -45
8 -74 -12 -21 -40 -25 -58 -7 -18 18 -15 75 6 87 23 14 23 14 44 -6z"/>
<path d="M2442 512 c-35 -5 -56 -45 -49 -94 6 -47 27 -68 69 -68 27 0 68 30
68 50 0 15 -26 12 -40 -5 -7 -9 -23 -15 -34 -13 -17 2 -22 11 -24 47 -2 28 1
47 10 52 19 13 26 11 45 -11 20 -22 43 -27 43 -7 -1 31 -44 56 -88 49z"/>
<path d="M2603 510 c-29 -12 -50 -50 -28 -50 9 0 23 7 31 15 19 19 38 19 54 0
18 -22 3 -35 -39 -35 -46 0 -66 -20 -57 -55 8 -30 45 -42 77 -24 17 9 24 9 27
0 2 -6 10 -11 18 -11 19 0 20 132 1 148 -19 16 -60 22 -84 12z m67 -100 c0
-15 -46 -34 -64 -27 -9 4 -13 13 -10 22 7 17 74 22 74 5z"/>
<path d="M2962 513 c-12 -2 -27 -13 -33 -25 -18 -33 1 -36 42 -6 22 15 49 3
49 -22 0 -17 -6 -20 -39 -20 -43 0 -64 -18 -59 -51 5 -33 31 -46 68 -32 17 6
32 7 36 2 3 -5 12 -9 20 -9 21 0 20 123 -2 144 -8 9 -19 16 -24 16 -5 0 -14 2
-22 4 -7 2 -23 1 -36 -1z m58 -101 c0 -14 -23 -32 -41 -32 -21 0 -33 16 -24
30 7 12 65 14 65 2z"/>
<path d="M2100 429 c0 -72 2 -79 20 -79 16 0 19 8 22 58 3 48 7 59 26 67 37
16 26 33 -23 33 l-45 0 0 -79z"/>
<path d="M1182 220 c-29 -12 -45 -55 -39 -105 7 -47 28 -65 78 -65 28 0 42 6
53 22 9 12 16 26 16 30 0 16 -26 7 -38 -12 -16 -26 -58 -26 -72 -1 -25 47 -5
111 35 111 14 0 30 -9 37 -20 13 -20 38 -28 38 -11 0 18 -36 50 -60 55 -14 3
-35 1 -48 -4z"/>
<path d="M2072 220 c-29 -12 -45 -55 -39 -105 7 -47 28 -65 78 -65 28 0 42 6
53 22 26 37 21 58 -14 58 -16 0 -30 -4 -30 -10 0 -5 7 -10 15 -10 18 0 19 -12
3 -28 -18 -18 -56 -14 -68 7 -25 47 -5 111 35 111 14 0 30 -9 37 -20 15 -23
38 -27 38 -7 0 35 -67 64 -108 47z"/>
<path d="M600 150 c0 -54 -4 -72 -15 -76 -21 -8 -19 -24 3 -24 33 0 42 22 42
97 0 58 -3 73 -15 73 -12 0 -15 -14 -15 -70z"/>
<path d="M980 205 c-10 -12 -10 -15 3 -15 8 0 20 7 27 15 10 12 10 15 -3 15
-8 0 -20 -7 -27 -15z"/>
<path d="M2760 135 c0 -69 3 -85 15 -85 12 0 15 16 15 85 0 69 -3 85 -15 85
-12 0 -15 -16 -15 -85z"/>
<path d="M670 151 c-26 -49 -4 -101 43 -101 18 0 38 5 45 12 16 16 16 80 0 96
-20 20 -76 15 -88 -7z m75 -41 c0 -31 -3 -35 -25 -35 -19 0 -26 6 -28 23 -5
36 5 54 30 50 19 -2 23 -9 23 -38z"/>
<path d="M810 155 c-18 -22 -5 -43 31 -53 18 -4 34 -13 37 -20 5 -16 -40 -16
-56 0 -17 17 -27 2 -12 -17 18 -21 79 -16 94 8 9 15 7 21 -8 33 -11 8 -30 14
-43 14 -14 0 -23 6 -23 15 0 9 9 15 25 15 14 0 25 -4 25 -10 0 -5 7 -10 15
-10 18 0 19 12 3 28 -17 17 -73 15 -88 -3z"/>
<path d="M952 161 c-9 -5 -12 -25 -10 -57 l3 -49 43 -3 c31 -2 44 1 48 13 9
23 -1 28 -24 14 -21 -13 -52 -7 -52 11 0 5 18 10 40 10 35 0 40 3 40 23 0 13
-5 28 -12 35 -14 14 -57 16 -76 3z m66 -28 c2 -9 -7 -13 -27 -13 -30 0 -39 9
-24 24 11 10 46 3 51 -11z"/>
<path d="M1320 108 c0 -32 4 -58 10 -58 6 0 10 18 10 40 0 33 4 42 25 52 35
16 31 26 -10 25 l-35 -1 0 -58z"/>
<path d="M1422 158 c-7 -7 -12 -28 -12 -48 0 -20 5 -41 12 -48 16 -16 70 -16
86 0 16 16 15 28 -3 28 -8 0 -15 -5 -15 -11 0 -14 -52 -7 -58 9 -2 8 10 12 42
12 49 0 57 11 36 51 -12 22 -68 27 -88 7z m68 -23 c0 -10 -10 -15 -30 -15 -29
0 -38 9 -23 23 13 13 53 7 53 -8z"/>
<path d="M1557 163 c-4 -3 -7 -17 -7 -29 0 -18 7 -25 28 -30 46 -10 53 -14 47
-24 -9 -14 -52 -12 -58 3 -2 6 -8 9 -12 5 -4 -4 -5 -14 -1 -23 4 -12 17 -15
48 -13 38 3 43 6 43 28 0 20 -7 27 -35 36 -19 6 -36 16 -38 23 -5 15 41 14 56
-1 15 -15 26 -4 19 17 -6 15 -77 22 -90 8z"/>
<path d="M1680 84 c0 -68 3 -84 15 -84 10 0 15 10 15 28 0 25 3 27 37 27 l38
0 0 55 0 55 -52 2 -53 1 0 -84z m88 32 c4 -35 -9 -50 -37 -41 -15 4 -21 15
-21 35 0 48 53 54 58 6z"/>
<path d="M1830 151 c-26 -49 -4 -101 43 -101 18 0 38 5 45 12 16 16 16 80 0
96 -20 20 -76 15 -88 -7z m75 -41 c0 -31 -3 -35 -25 -35 -19 0 -26 6 -28 23
-5 36 5 54 30 50 19 -2 23 -9 23 -38z"/>
<path d="M2222 158 c-7 -7 -12 -28 -12 -48 0 -44 15 -60 55 -60 40 0 55 16 55
60 0 44 -15 60 -55 60 -17 0 -36 -5 -43 -12z m73 -28 c3 -11 3 -29 0 -40 -9
-27 -51 -27 -60 0 -10 32 4 60 30 60 15 0 26 -7 30 -20z"/>
<path d="M2350 109 c0 -46 3 -59 15 -59 11 0 15 12 15 44 0 31 5 46 16 50 30
11 34 6 34 -44 0 -38 4 -50 15 -50 11 0 15 12 15 48 0 63 -7 72 -63 70 l-47
-1 0 -58z"/>
<path d="M2490 160 c0 -5 14 -10 30 -10 17 0 30 -4 30 -8 0 -5 -13 -21 -30
-37 -44 -42 -39 -55 20 -55 55 0 69 17 18 22 l-32 3 32 36 c44 50 41 59 -18
59 -27 0 -50 -4 -50 -10z"/>
<path d="M2630 150 c-9 -16 -8 -20 5 -20 8 0 15 5 15 10 0 16 47 12 54 -5 4
-11 -2 -15 -22 -15 -37 0 -65 -21 -60 -46 3 -16 12 -19 56 -20 l52 -1 0 47 c0
25 -5 51 -12 58 -20 20 -76 15 -88 -8z m70 -65 c-7 -8 -21 -15 -31 -15 -11 0
-19 7 -19 15 0 10 10 15 31 15 27 0 30 -2 19 -15z"/>
<path d="M2830 151 c-14 -26 -13 -74 2 -89 17 -17 73 -15 88 3 16 19 5 34 -12
17 -17 -17 -55 -15 -62 3 -4 12 4 15 39 15 40 0 45 2 45 23 0 32 -18 47 -57
47 -22 0 -36 -6 -43 -19z m74 -16 c4 -12 -3 -15 -29 -15 -26 0 -33 3 -29 15 4
8 16 15 29 15 13 0 25 -7 29 -15z"/>
<path d="M2963 154 c-9 -24 10 -48 42 -54 36 -6 46 -30 13 -30 -13 0 -29 5
-36 12 -15 15 -26 4 -18 -17 4 -12 17 -15 48 -13 37 3 44 7 46 27 4 26 -12 41
-45 41 -12 0 -25 5 -28 10 -10 16 26 24 47 11 23 -14 33 -9 25 14 -9 22 -85
21 -94 -1z"/>
</g>
</svg>
